<?xml version="1.0" encoding="UTF-8" standalone="no"?>
<!DOCTYPE svg PUBLIC "-//W3C//DTD SVG 1.1//EN" "http://www.w3.org/Graphics/SVG/1.1/DTD/svg11.dtd">
<svg width="100%" height="100%" viewBox="0 0 100 400" version="1.1">
    <g id="Lamp">
        <g transform="matrix(1,0,0,1.1641,3.29502,-65.6408)">
            <rect x="40.319" y="136.506" width="12.771" height="263.494" style="fill:rgb(235,235,235);"/>
        </g>
        <g transform="matrix(0.955755,0.294163,-0.294163,0.955755,60.7623,2.25271)">
            <rect x="43.614" y="125.68" width="12.771" height="74.32" style="fill:rgb(235,235,235);"/>
        </g>
        <g transform="matrix(-1,1.22465e-16,-1.22465e-16,-1,95.4753,130.374)">
            <path className="light-bulb" d="M58.972,72.615C59.228,74.071 58.827,75.564 57.877,76.695C56.927,77.827 55.525,78.48 54.048,78.48L36.903,78.48C35.426,78.48 34.024,77.827 33.074,76.695C32.124,75.564 31.723,74.071 31.979,72.615C33.982,61.201 38.212,37.108 38.212,37.108L52.739,37.108C52.739,37.108 56.969,61.201 58.972,72.615Z" />
        </g>
        <g transform="matrix(-0.955753,-0.294162,0.294163,-0.955755,104.127,185.924)">
            <path className="light-bulb" d="M58.972,72.615C59.228,74.071 58.827,75.564 57.877,76.695C56.927,77.827 55.525,78.48 54.048,78.48C49.039,78.48 41.912,78.48 36.903,78.48C35.426,78.48 34.024,77.827 33.074,76.695C32.124,75.564 31.723,74.071 31.979,72.615C33.982,61.201 38.212,37.108 38.212,37.108L52.739,37.108C52.739,37.108 56.969,61.201 58.972,72.615Z" />
        </g>
        <g transform="matrix(-0.955755,0.294163,0.294163,0.955755,39.2377,34.6671)">
            <rect x="43.614" y="125.68" width="12.771" height="74.32" style="fill:rgb(235,235,235);"/>
        </g>
        <g transform="matrix(0.955755,-0.294163,-0.294163,-0.955755,-4.127,218.338)">
            <path className="light-bulb" d="M58.972,72.615C59.228,74.071 58.827,75.564 57.877,76.695C56.927,77.827 55.525,78.48 54.048,78.48L36.317,78.48C34.985,78.48 33.721,77.891 32.865,76.871C32.008,75.851 31.647,74.505 31.877,73.193C33.836,62.037 38.212,37.108 38.212,37.108L52.739,37.108C52.739,37.108 56.969,61.201 58.972,72.615Z"/>
        </g>
    </g>
</svg>
