<?xml version="1.0" encoding="UTF-8" standalone="no"?>
<!DOCTYPE svg PUBLIC "-//W3C//DTD SVG 1.1//EN" "http://www.w3.org/Graphics/SVG/1.1/DTD/svg11.dtd">
<svg viewBox="0 0 50 200" version="1.1" xmlns="http://www.w3.org/2000/svg" xmlnsXlink="http://www.w3.org/1999/xlink" xmlSpace="preserve" style="fill-rule:evenodd;clip-rule:evenodd;stroke-linejoin:round;stroke-miterlimit:2;">
    <g transform="matrix(1,0,0,1,-2.70006e-13,10.6429)">
        <path class="skateboard-item" d="M2.489,156.967L2.489,31.747C2.489,26.443 4.596,21.356 8.347,17.605C12.098,13.855 17.185,11.747 22.489,11.747C24.157,11.747 25.843,11.747 27.511,11.747C32.815,11.747 37.902,13.855 41.653,17.605C45.404,21.356 47.511,26.443 47.511,31.747L47.511,156.967C47.511,162.271 45.404,167.358 41.653,171.109C37.902,174.86 32.815,176.967 27.511,176.967C25.843,176.967 24.157,176.967 22.489,176.967C17.185,176.967 12.098,174.86 8.347,171.109C4.596,167.358 2.489,162.271 2.489,156.967ZM19.217,157.017C19.922,157.017 20.494,156.445 20.494,155.74C20.494,155.035 19.922,154.463 19.217,154.463C18.512,154.463 17.94,155.035 17.94,155.74C17.94,156.445 18.512,157.017 19.217,157.017ZM30.783,157.017C31.488,157.017 32.06,156.445 32.06,155.74C32.06,155.035 31.488,154.463 30.783,154.463C30.078,154.463 29.506,155.035 29.506,155.74C29.506,156.445 30.078,157.017 30.783,157.017ZM30.783,145.339C31.488,145.339 32.06,144.767 32.06,144.062C32.06,143.357 31.488,142.785 30.783,142.785C30.078,142.785 29.506,143.357 29.506,144.062C29.506,144.767 30.078,145.339 30.783,145.339ZM19.217,145.339C19.922,145.339 20.494,144.767 20.494,144.062C20.494,143.357 19.922,142.785 19.217,142.785C18.512,142.785 17.94,143.357 17.94,144.062C17.94,144.767 18.512,145.339 19.217,145.339ZM30.783,43.375C31.488,43.375 32.06,43.947 32.06,44.652C32.06,45.357 31.488,45.929 30.783,45.929C30.078,45.929 29.506,45.357 29.506,44.652C29.506,43.947 30.078,43.375 30.783,43.375ZM19.217,43.375C19.922,43.375 20.494,43.947 20.494,44.652C20.494,45.357 19.922,45.929 19.217,45.929C18.512,45.929 17.94,45.357 17.94,44.652C17.94,43.947 18.512,43.375 19.217,43.375ZM30.783,31.697C31.488,31.697 32.06,32.269 32.06,32.974C32.06,33.679 31.488,34.251 30.783,34.251C30.078,34.251 29.506,33.679 29.506,32.974C29.506,32.269 30.078,31.697 30.783,31.697ZM19.217,31.697C19.922,31.697 20.494,32.269 20.494,32.974C20.494,33.679 19.922,34.251 19.217,34.251C18.512,34.251 17.94,33.679 17.94,32.974C17.94,32.269 18.512,31.697 19.217,31.697Z"/>
    </g>
</svg>
